<svg width="33" height="33" viewBox="0 0 33 33" fill="none" xmlns="http://www.w3.org/2000/svg">
<g clip-path="url(#clip0_39_46)">
<path d="M16.095 0.895C7.25903 0.895 0.0950317 8.058 0.0950317 16.895C0.0950317 23.964 4.68003 29.962 11.037 32.077C11.837 32.225 12.131 31.73 12.131 31.307C12.131 30.926 12.116 29.665 12.109 28.328C7.65703 29.296 6.71803 26.44 6.71803 26.44C5.99003 24.591 4.94203 24.099 4.94203 24.099C3.49003 23.106 5.05203 23.126 5.05203 23.126C6.65803 23.239 7.50403 24.775 7.50403 24.775C8.93103 27.221 11.247 26.514 12.16 26.105C12.303 25.071 12.718 24.365 13.176 23.965C9.62203 23.561 5.88603 22.188 5.88603 16.058C5.88603 14.311 6.51103 12.884 7.53503 11.763C7.36903 11.36 6.82103 9.733 7.69003 7.529C7.69003 7.529 9.03403 7.099 12.091 9.169C13.367 8.814 14.736 8.637 16.096 8.63C17.455 8.636 18.825 8.814 20.104 9.169C23.158 7.099 24.499 7.529 24.499 7.529C25.37 9.733 24.822 11.36 24.656 11.763C25.682 12.883 26.303 14.311 26.303 16.058C26.303 22.203 22.56 23.556 18.997 23.953C19.571 24.45 20.082 25.423 20.082 26.916C20.082 29.057 20.063 30.78 20.063 31.307C20.063 31.733 20.351 32.232 21.162 32.075C27.516 29.957 32.095 23.962 32.095 16.895C32.095 8.058 24.931 0.895 16.095 0.895Z" fill="black"/>
</g>
<defs>
<clipPath id="clip0_39_46">
<rect width="32" height="32" fill="white" transform="translate(0.0950317 0.5)"/>
</clipPath>
</defs>
</svg>
