<svg width="33" height="33" viewBox="0 0 33 33" fill="none" xmlns="http://www.w3.org/2000/svg">
<g clip-path="url(#clip0_39_48)">
<path d="M16.095 3.381C20.37 3.381 20.876 3.4 22.557 3.475C24.12 3.544 24.963 3.806 25.526 4.025C26.27 4.313 26.807 4.663 27.363 5.219C27.926 5.782 28.269 6.313 28.563 7.057C28.782 7.62 29.044 8.469 29.113 10.026C29.188 11.714 29.207 12.22 29.207 16.489C29.207 20.758 29.188 21.27 29.113 22.952C29.044 24.515 28.782 25.358 28.563 25.921C28.275 26.665 27.926 27.202 27.369 27.758C26.806 28.321 26.275 28.664 25.532 28.958C24.969 29.177 24.119 29.439 22.563 29.508C20.875 29.583 20.369 29.602 16.1 29.602C11.831 29.602 11.319 29.583 9.63703 29.508C8.07403 29.439 7.23103 29.177 6.66803 28.958C5.92403 28.67 5.38703 28.321 4.83003 27.764C4.26703 27.201 3.92403 26.67 3.63003 25.927C3.41103 25.364 3.14903 24.514 3.08003 22.958C3.00503 21.27 2.98603 20.764 2.98603 16.495C2.98603 12.226 3.00503 11.714 3.08003 10.032C3.14903 8.469 3.41103 7.626 3.63003 7.063C3.91803 6.319 4.26803 5.782 4.82403 5.225C5.38703 4.662 5.91803 4.319 6.66203 4.025C7.22503 3.806 8.07403 3.544 9.63103 3.475C11.312 3.4 11.819 3.381 16.094 3.381H16.095ZM16.095 0.500001C11.751 0.500001 11.208 0.519001 9.50103 0.594001C7.80103 0.669001 6.63203 0.944001 5.62003 1.338C4.56403 1.75 3.67003 2.294 2.78303 3.188C1.88903 4.076 1.34503 4.969 0.933032 6.019C0.539032 7.038 0.264032 8.2 0.189032 9.9C0.114032 11.613 0.0950317 12.156 0.0950317 16.5C0.0950317 20.844 0.114032 21.387 0.189032 23.094C0.264032 24.794 0.539032 25.963 0.933032 26.975C1.34603 28.031 1.88903 28.925 2.78303 29.812C3.67003 30.699 4.56403 31.25 5.61403 31.656C6.63303 32.05 7.79503 32.325 9.49503 32.4C11.201 32.475 11.745 32.494 16.089 32.494C20.433 32.494 20.977 32.475 22.683 32.4C24.383 32.325 25.552 32.05 26.564 31.656C27.614 31.25 28.508 30.7 29.395 29.812C30.282 28.924 30.833 28.031 31.239 26.981C31.633 25.962 31.908 24.8 31.983 23.1C32.058 21.394 32.077 20.85 32.077 16.506C32.077 12.162 32.058 11.619 31.983 9.912C31.908 8.212 31.633 7.043 31.239 6.031C30.845 4.968 30.301 4.075 29.408 3.187C28.521 2.3 27.627 1.749 26.577 1.343C25.558 0.949001 24.396 0.674001 22.696 0.599001C20.984 0.518001 20.44 0.499001 16.096 0.499001L16.095 0.500001Z" fill="black"/>
<path d="M16.095 8.281C11.558 8.281 7.87604 11.962 7.87604 16.5C7.87604 21.038 11.557 24.719 16.095 24.719C20.633 24.719 24.314 21.038 24.314 16.5C24.314 11.963 20.633 8.281 16.095 8.281ZM16.095 21.831C13.151 21.831 10.764 19.444 10.764 16.5C10.764 13.556 13.151 11.169 16.095 11.169C19.039 11.169 21.426 13.556 21.426 16.5C21.426 19.444 19.039 21.831 16.095 21.831Z" fill="black"/>
<path d="M26.5571 7.956C26.5571 9.016 25.6981 9.875 24.6381 9.875C23.5781 9.875 22.7191 9.016 22.7191 7.956C22.7191 6.896 23.5781 6.037 24.6381 6.037C25.6981 6.037 26.5571 6.896 26.5571 7.956Z" fill="black"/>
</g>
<defs>
<clipPath id="clip0_39_48">
<rect width="32" height="32" fill="white" transform="translate(0.0950317 0.5)"/>
</clipPath>
</defs>
</svg>
