<svg width="33" height="33" viewBox="0 0 33 33" fill="none" xmlns="http://www.w3.org/2000/svg">
<g clip-path="url(#clip0_39_52)">
<path d="M29.095 0.5H3.09503C1.44503 0.5 0.0950317 1.85 0.0950317 3.5V29.5C0.0950317 31.15 1.44503 32.5 3.09503 32.5H29.095C30.745 32.5 32.095 31.15 32.095 29.5V3.5C32.095 1.85 30.745 0.5 29.095 0.5ZM12.095 26.5H8.09503V12.5H12.095V26.5ZM10.095 10.5C8.98903 10.5 8.09503 9.606 8.09503 8.5C8.09503 7.394 8.98903 6.5 10.095 6.5C11.201 6.5 12.095 7.394 12.095 8.5C12.095 9.606 11.201 10.5 10.095 10.5ZM26.095 26.5H22.095V18.5C22.095 17.394 21.201 16.5 20.095 16.5C18.989 16.5 18.095 17.394 18.095 18.5V26.5H14.095V12.5H18.095V14.981C18.92 13.85 20.182 12.5 21.595 12.5C24.083 12.5 26.095 14.738 26.095 17.5V26.5Z" fill="black"/>
</g>
<defs>
<clipPath id="clip0_39_52">
<rect width="32" height="32" fill="white" transform="translate(0.0950317 0.5)"/>
</clipPath>
</defs>
</svg>
